Coordinates
version=1
nRows=25
nColumns=38
inDegrees=no

Units are S.I. units (second, meters, Newtons, ...)
If the header above contains a line with 'inDegrees', this indicates whether rotational values are in degrees (yes) or radians (no).

endheader
time	pelvis_tilt	pelvis_list	pelvis_rotation	pelvis_tx	pelvis_ty	pelvis_tz	hip_flexion_r	hip_adduction_r	hip_rotation_r	knee_angle_r	ankle_angle_r	subtalar_angle_r	mtp_angle_r	hip_flexion_l	hip_adduction_l	hip_rotation_l	knee_angle_l	ankle_angle_l	subtalar_angle_l	mtp_angle_l	lumbar_extension	lumbar_bending	lumbar_rotation	arm_flex_r	arm_add_r	arm_rot_r	elbow_flex_r	pro_sup_r	wrist_flex_r	wrist_dev_r	arm_flex_l	arm_add_l	arm_rot_l	elbow_flex_l	pro_sup_l	wrist_flex_l	wrist_dev_l
0.08	-0.254091	0.0354865	0.0510913	1.06611	0.919595	-0.410234	0.767564	-0.0893034	-0.0537015	-2.13199	0.358632	0.0350192	0	0.499302	0.00428332	-0.365311	-0.934292	0.660501	0.439267	0	-0.104097	-0.0150042	-0.166245	-0.529371	-0.23376	-0.160837	1.61704	1.71498	0	0	-0.405924	-0.282041	-0.389478	1.98911	1.81233	0	0
0.09	-0.276563	0.0106624	0.0442057	1.06707	0.923392	-0.409913	0.868051	-0.0626014	-0.0583418	-2.0952	0.375804	-0.00511916	0	0.425325	-0.0191615	-0.379508	-0.853361	0.620884	0.448691	0	-0.0710701	0.0160803	-0.195031	-0.589392	-0.241671	-0.175118	1.66031	1.74111	0	0	-0.382137	-0.273016	-0.382789	2.03606	1.80392	0	0
0.1	-0.299391	-0.0140054	0.0360787	1.06836	0.927448	-0.40972	0.958395	-0.0366393	-0.0662379	-2.0443	0.392961	-0.0355336	0	0.356443	-0.0419112	-0.388623	-0.775137	0.569044	0.447484	0	-0.0377552	0.0483502	-0.218087	-0.651543	-0.244929	-0.193806	1.70389	1.76071	0	0	-0.358939	-0.265897	-0.368512	2.07967	1.79503	0	0
0.11	-0.322534	-0.0384065	0.0267842	1.06995	0.931744	-0.409661	1.03854	-0.01153	-0.0773463	-1.97934	0.410153	-0.0561026	0	0.292759	-0.063839	-0.392502	-0.699939	0.50522	0.435794	0	-0.00424439	0.0816762	-0.235486	-0.7157	-0.243544	-0.216768	1.74772	1.77371	0	0	-0.336322	-0.260716	-0.346766	2.11991	1.7858	0	0
0.12	-0.345831	-0.0622059	0.0165353	1.07181	0.936236	-0.409753	1.10829	0.0124144	-0.091524	-1.90047	0.427522	-0.0665053	0	0.234538	-0.0845706	-0.390723	-0.628754	0.430283	0.414136	0	0.0291522	0.115647	-0.247453	-0.781437	-0.23759	-0.243575	1.79157	1.77997	0	0	-0.314277	-0.257571	-0.317951	2.1567	1.77656	0	0
0.13	-0.368917	-0.0847896	0.00569965	1.07386	0.940844	-0.410018	1.16723	0.0346858	-0.108491	-1.80798	0.445326	-0.0662453	0	0.182144	-0.103433	-0.382659	-0.563372	0.345964	0.383678	0	0.0618033	0.149471	-0.254395	-0.847855	-0.2273	-0.273393	1.83498	1.7794	0	0	-0.29284	-0.256617	-0.282852	2.18987	1.76779	0	0
0.14	-0.391184	-0.105307	-0.00523868	1.07598	0.945463	-0.410475	1.21473	0.0546852	-0.127827	-1.70225	0.463909	-0.0548097	0	0.135902	-0.119529	-0.367764	-0.506328	0.255102	0.346475	0	0.0927331	0.181981	-0.256886	-0.913502	-0.213164	-0.304974	1.87723	1.77221	0	0	-0.272149	-0.258012	-0.242672	2.21924	1.75997	0	0
0.15	-0.411793	-0.122807	-0.0157496	1.07809	0.949977	-0.411126	1.24993	0.0719001	-0.149	-1.58386	0.48359	-0.0319368	0	0.0959577	-0.131896	-0.345871	-0.460618	0.161672	0.305367	0	0.120689	0.211764	-0.25562	-0.9764	-0.196011	-0.336773	1.91736	1.75903	0	0	-0.25252	-0.261834	-0.198984	2.24452	1.7534	0	0
0.16	-0.429736	-0.136427	-0.0253412	1.08007	0.954273	-0.411955	1.27192	0.0860806	-0.171409	-1.45364	0.504542	0.00214486	0	0.0621604	-0.139711	-0.317455	-0.429298	0.0705495	0.263546	0	0.144278	0.237377	-0.251353	-1.0342	-0.177033	-0.367128	1.95433	1.74111	0	0	-0.234492	-0.267976	-0.153635	2.26536	1.74824	0	0
0.17	-0.443952	-0.145577	-0.0336422	1.08186	0.958258	-0.412918	1.2799	0.0973631	-0.194412	-1.3129	0.526626	0.0465238	0	0.0340336	-0.142489	-0.283714	-0.415033	-0.0131033	0.223723	0	0.162141	0.257594	-0.244839	-1.08443	-0.157746	-0.39449	1.9871	1.72026	0	0	-0.218825	-0.276079	-0.108606	2.28132	1.74447	0	0
0.18	-0.453468	-0.150079	-0.040473	1.08346	0.961859	-0.413949	1.27345	0.106309	-0.21732	-1.16365	0.549223	0.0994389	0	0.0108525	-0.140286	-0.246726	-0.419768	-0.0846909	0.187724	0	0.173151	0.271629	-0.236743	-1.12481	-0.139854	-0.417632	2.01481	1.69869	0	0	-0.206427	-0.285507	-0.0658379	2.29186	1.74198	0	0
0.19	-0.457575	-0.150225	-0.0458838	1.08488	0.965014	-0.414976	1.25277	0.113812	-0.239404	-1.00882	0.571068	0.1582	0	-0.00817758	-0.13383	-0.209464	-0.444544	-0.141058	0.1563	0	0.176602	0.279311	-0.22753	-1.15364	-0.125044	-0.435823	2.03691	1.67871	0	0	-0.198196	-0.295399	-0.0270109	2.29633	1.74053	0	0
0.2	-0.455992	-0.146732	-0.050127	1.08617	0.967657	-0.415931	1.21893	0.12084	-0.259992	-0.852448	0.590252	0.219397	0	-0.023707	-0.124449	-0.175284	-0.489388	-0.181043	0.128798	0	0.172383	0.281107	-0.217437	-1.17001	-0.11479	-0.448875	2.05321	1.66242	0	0	-0.194859	-0.304762	0.00661624	2.29408	1.7398	0	0
0.21	-0.448952	-0.140624	-0.0535784	1.08738	0.969709	-0.416769	1.17396	0.128132	-0.278587	-0.699712	0.604348	0.279183	0	-0.0360653	-0.113909	-0.147339	-0.553356	-0.20537	0.103455	0	0.161046	0.278021	-0.206503	-1.1739	-0.110211	-0.457063	2.06387	1.65131	0	0	-0.19683	-0.312609	0.0342812	2.28446	1.7393	0	0
0.22	-0.437188	-0.133071	-0.0566364	1.08855	0.971063	-0.417472	1.12087	0.135985	-0.294957	-0.556793	0.610727	0.333564	0	-0.0451903	-0.104149	-0.128002	-0.634661	-0.215971	0.0781654	0	0.143743	0.271421	-0.194644	-1.1661	-0.11199	-0.460981	2.06931	1.64603	0	0	-0.204131	-0.318093	0.0557078	2.26694	1.73839	0	0
0.23	-0.421805	-0.125224	-0.0596342	1.08969	0.971595	-0.418049	1.06342	0.14417	-0.309131	-0.430555	0.607097	0.378731	0	-0.0506781	-0.0969793	-0.118438	-0.730846	-0.215123	0.0513459	0	0.122026	0.262813	-0.18171	-1.14801	-0.120357	-0.461355	2.07011	1.64634	0	0	-0.216365	-0.320619	0.0710201	2.24117	1.73639	0	0
0.24	-0.404092	-0.118063	-0.0627932	1.09076	0.971177	-0.418527	1.00581	0.151987	-0.321398	-0.328062	0.592187	0.411615	0	-0.0518956	-0.093777	-0.118349	-0.838978	-0.204827	0.0224715	0	0.0975757	0.253629	-0.167528	-1.1213	-0.135123	-0.458886	2.06684	1.6511	0	0	-0.232763	-0.319886	0.0806175	2.20702	1.73272	0	0
0.25	-0.385341	-0.112307	-0.0662253	1.09167	0.969697	-0.418946	0.952291	0.158407	-0.332437	-0.255887	0.566387	0.430804	0	-0.0480771	-0.0952732	-0.126002	-0.955874	-0.186553	-0.00780043	0	0.0719373	0.245073	-0.151915	-1.08765	-0.155754	-0.454135	2.06	1.65858	0	0	-0.252275	-0.315888	0.0850551	2.16461	1.72721	0	0
0.26	-0.366708	-0.108398	-0.0699761	1.09232	0.967096	-0.41934	0.906587	0.162397	-0.343158	-0.219142	0.532003	0.436923	0	-0.0383713	-0.101519	-0.138603	-1.07835	-0.161296	-0.0376896	0	0.0463462	0.238042	-0.134667	-1.04846	-0.181449	-0.447475	2.04991	1.66675	0	0	-0.27368	-0.308876	0.0849575	2.11429	1.72032	0	0
0.27	-0.34915	-0.10654	-0.074077	1.09256	0.963392	-0.419728	0.871312	0.163328	-0.354174	-0.220277	0.493085	0.432231	0	-0.0218536	-0.111994	-0.152844	-1.20339	-0.129783	-0.0646433	0	0.0216695	0.233098	-0.115595	-1.00467	-0.211252	-0.439076	2.03674	1.67367	0	0	-0.295778	-0.299308	0.0809343	2.05671	1.71317	0	0
0.28	-0.333386	-0.106772	-0.078577	1.09223	0.9587	-0.420104	0.847386	0.161326	-0.365161	-0.258013	0.454866	0.419698	0	0.00243191	-0.125812	-0.165459	-1.32827	-0.0927117	-0.0859604	0	-0.00157279	0.23051	-0.0945334	-0.956787	-0.244095	-0.42898	2.02058	1.67787	0	0	-0.317545	-0.287811	0.0735732	1.99289	1.70729	0	0
0.29	-0.319895	-0.109015	-0.0835316	1.09124	0.953235	-0.420438	0.833766	0.157345	-0.374739	-0.327019	0.423074	0.402367	0	0.0353784	-0.1419	-0.173692	-1.45048	-0.0509359	-0.0994565	0	-0.0231202	0.230289	-0.0713723	-0.904999	-0.278802	-0.417236	2.00166	1.67864	0	0	-0.338293	-0.275149	0.0634794	1.92432	1.70413	0	0
0.3	-0.308922	-0.113032	-0.0889484	1.08954	0.947298	-0.420693	0.827653	0.152883	-0.380884	-0.418634	0.403157	0.383051	0	0.0776772	-0.1591	-0.175616	-1.56768	-0.00558363	-0.104058	0	-0.0428403	0.232161	-0.0461177	-0.849461	-0.314078	-0.404019	1.98055	1.67612	0	0	-0.357794	-0.262209	0.0513311	1.8531	1.70457	0	0
0.31	-0.300489	-0.118338	-0.0947091	1.08717	0.941244	-0.420831	0.825205	0.149377	-0.381695	-0.522647	0.399668	0.364318	0	0.129653	-0.176149	-0.170286	-1.67754	0.0419425	-0.100209	0	-0.0605926	0.235485	-0.0189717	-0.790564	-0.348508	-0.389723	1.95845	1.6713	0	0	-0.376361	-0.250003	0.037921	1.78195	1.70853	0	0
0.32	-0.294463	-0.124161	-0.100519	1.08428	0.935447	-0.420831	0.822176	0.147742	-0.375971	-0.628695	0.415109	0.34828	0	0.191152	-0.191715	-0.157756	-1.77768	0.0900393	-0.089976	0	-0.0760964	0.23925	0.00961633	-0.729169	-0.38059	-0.374974	1.93722	1.66578	0	0	-0.394848	-0.239626	0.024149	1.71414	1.7148	0	0
